# Blender v3.0.0 OBJ File: 'cameraWireFrame.blend'
# www.blender.org
mtllib camera.mtl
o Plane
v -0.500000 0.280000 -1.390000
v 0.349998 0.331252 -1.390000
v -0.000002 0.681252 -1.390000
v -0.349998 0.331252 -1.390000
v 0.496733 0.276970 -1.387844
v 0.503333 0.283091 -1.392200
v -0.496733 0.276970 -1.387844
v -0.503333 0.283091 -1.392200
v 0.496733 -0.276970 -1.387844
v 0.503333 -0.283091 -1.392200
v -0.496733 -0.276970 -1.387844
v -0.503333 -0.283091 -1.392200
v 0.000000 0.000000 -0.004950
v 0.000000 -0.000000 0.005050
v -0.492968 0.279043 -1.385120
v 0.000000 0.002969 -0.014689
v 0.492968 0.279043 -1.385120
v 0.498341 0.273994 -1.385317
v 0.009088 0.000000 -0.025213
v 0.498341 -0.273994 -1.385317
v -0.492968 -0.279043 -1.385120
v 0.492968 -0.279043 -1.385120
v 0.000000 -0.002969 -0.014689
v -0.498341 -0.273994 -1.385317
v -0.009088 0.000000 -0.025213
v -0.498341 0.273994 -1.385317
v -0.495033 0.275030 -1.390022
v 0.495033 0.275030 -1.390022
v 0.495033 -0.275031 -1.390022
v -0.495033 -0.275031 -1.390022
v 0.349998 0.331252 -1.390000
v -0.000002 0.681252 -1.390000
v -0.349998 0.331252 -1.390000
vt 0.000000 0.000000
vt 0.000000 0.000000
vt 0.000000 0.000000
vt 0.000000 0.000000
vt 0.000000 0.000000
vt 0.000000 0.000000
vt 0.000000 0.000000
vt 0.000000 0.000000
vt 0.000000 0.000000
vt 0.000000 0.000000
vt 0.000000 0.000000
vt 0.000000 0.000000
vt 0.000000 0.000000
vt 0.000000 0.000000
vt 0.000000 0.000000
vt 0.000000 0.000000
vt 0.000000 0.000000
vt 0.000000 0.000000
vt 0.000000 0.000000
vt 0.000000 0.000000
vt 0.000000 0.000000
vt 0.000000 0.000000
vt 0.000000 0.000000
vt 0.000000 0.000000
vt 0.000000 0.000000
vt 0.000000 0.000000
vt 0.000000 0.000000
vt 0.000000 0.000000
vt 0.000000 0.000000
vt 0.000000 0.000000
vt 0.000000 0.000000
vt 0.000000 0.000000
vn 0.0000 0.0000 -1.0000
vn 0.4717 -0.8162 -0.3335
vn 0.2353 0.9656 0.1104
vn -0.4717 -0.8162 -0.3335
vn -0.2353 0.9656 0.1104
vn 0.0000 -0.7957 0.6057
vn 0.0000 0.8681 0.4964
vn -0.7718 -0.5099 -0.3799
vn 0.9183 -0.2871 0.2726
vn -0.7718 0.5099 -0.3799
vn 0.9183 0.2871 0.2726
vn -0.8438 0.0000 0.5367
vn 0.8095 0.0000 0.5871
vn 0.0000 0.7957 0.6057
vn 0.0000 -0.8681 0.4964
vn -0.4717 0.8162 -0.3335
vn -0.2353 -0.9656 0.1104
vn 0.4717 0.8162 -0.3335
vn 0.2353 -0.9656 0.1104
vn 0.7718 0.5099 -0.3799
vn -0.9183 0.2871 0.2726
vn 0.7718 -0.5099 -0.3799
vn -0.9183 -0.2871 0.2726
vn 0.8438 0.0000 0.5367
vn -0.8095 0.0000 0.5871
vn 0.0000 -0.7468 0.6650
vn 0.0000 -0.2608 -0.9654
vn -0.7882 0.0000 0.6154
vn -0.2538 0.0000 -0.9673
vn 0.0000 0.7468 0.6650
vn 0.0000 0.2608 -0.9654
vn 0.7882 0.0000 0.6154
vn 0.2538 0.0000 -0.9673
vn 0.0000 0.0000 1.0000
usemtl Material.002
s off
f 4/1/1 3/2/1 2/3/1
f 15/4/2 16/5/2 13/6/2 7/7/2
f 16/5/3 15/4/3 8/8/3 14/9/3
f 16/5/4 17/10/4 5/11/4 13/6/4
f 17/10/5 16/5/5 14/9/5 6/12/5
f 17/10/6 15/4/6 7/7/6 5/11/6
f 15/4/7 17/10/7 6/12/7 8/8/7
f 18/13/8 19/14/8 13/6/8 5/11/8
f 19/14/9 18/13/9 6/12/9 14/9/9
f 19/14/10 20/15/10 9/16/10 13/6/10
f 20/15/11 19/14/11 14/9/11 10/17/11
f 20/15/12 18/13/12 5/11/12 9/16/12
f 18/13/13 20/15/13 10/17/13 6/12/13
f 21/18/14 22/19/14 9/16/14 11/20/14
f 22/19/15 21/18/15 12/21/15 10/17/15
f 22/19/16 23/22/16 13/6/16 9/16/16
f 23/22/17 22/19/17 10/17/17 14/9/17
f 23/22/18 21/18/18 11/20/18 13/6/18
f 21/18/19 23/22/19 14/9/19 12/21/19
f 24/23/20 25/24/20 13/6/20 11/20/20
f 25/24/21 24/23/21 12/21/21 14/9/21
f 25/24/22 26/25/22 7/7/22 13/6/22
f 26/25/23 25/24/23 14/9/23 8/8/23
f 26/25/24 24/23/24 11/20/24 7/7/24
f 24/23/25 26/25/25 8/8/25 12/21/25
f 27/26/26 28/27/26 5/11/26 7/7/26
f 28/27/27 27/26/27 8/8/27 6/12/27
f 28/27/28 29/28/28 9/16/28 5/11/28
f 29/28/29 28/27/29 6/12/29 10/17/29
f 29/28/30 30/29/30 11/20/30 9/16/30
f 30/29/31 29/28/31 10/17/31 12/21/31
f 30/29/32 27/26/32 7/7/32 11/20/32
f 27/26/33 30/29/33 12/21/33 8/8/33
f 4/1/34 2/3/34 31/30/34 33/31/34
f 2/3/34 3/2/34 32/32/34 31/30/34
f 3/2/34 4/1/34 33/31/34 32/32/34
